<svg xmlns="http://www.w3.org/2000/svg" xmlns:xlink="http://www.w3.org/1999/xlink" width="500" zoomAndPan="magnify" viewBox="0 0 375 374.999991" height="500" preserveAspectRatio="xMidYMid meet" version="1.0"><defs><clipPath id="id1"><path d="M 11 9.886719 L 364 9.886719 L 364 359 L 11 359 Z M 11 9.886719 " clip-rule="nonzero"/></clipPath></defs><path fill="rgb(100%, 56.858826%, 30.198669%)" d="M 109.429688 127.085938 C 138.707031 175.917969 109.429688 231.507812 80.152344 221.742188 C 50.878906 211.972656 41.117188 241.273438 70.394531 251.039062 C 99.671875 260.808594 162.761719 246.5 197.257812 211.972656 C 207.015625 202.207031 216.777344 202.207031 216.777344 202.207031 Z M 109.429688 127.085938 " fill-opacity="1" fill-rule="nonzero"/><path fill="rgb(100%, 56.858826%, 30.198669%)" d="M 265.570312 127.085938 C 236.292969 175.917969 265.570312 231.507812 294.847656 221.742188 C 324.121094 211.972656 333.882812 241.273438 304.605469 251.039062 C 275.328125 260.808594 212.238281 246.5 177.742188 211.972656 C 167.984375 202.207031 158.222656 202.207031 158.222656 202.207031 Z M 265.570312 127.085938 " fill-opacity="1" fill-rule="nonzero"/><path fill="rgb(100%, 74.119568%, 34.899902%)" d="M 306.441406 166.148438 C 277.164062 214.984375 306.441406 270.574219 335.714844 260.808594 C 364.992188 251.039062 374.75 280.339844 345.476562 290.105469 C 316.199219 299.871094 253.109375 285.566406 218.609375 251.039062 C 208.851562 241.273438 199.09375 241.273438 199.09375 241.273438 Z M 68.558594 166.148438 C 97.835938 214.984375 68.558594 270.574219 39.285156 260.808594 C 10.007812 251.039062 0.25 280.339844 29.523438 290.105469 C 58.800781 299.871094 121.890625 285.566406 156.390625 251.039062 C 166.148438 241.273438 175.90625 241.273438 175.90625 241.273438 Z M 68.558594 166.148438 " fill-opacity="1" fill-rule="nonzero"/><g clip-path="url(#id1)"><path fill="rgb(100%, 87.059021%, 34.899902%)" d="M 335.714844 316.308594 C 309.085938 325.195312 273.015625 261.363281 288.757812 213 C 304.820312 181.328125 314.363281 146.03125 314.363281 117.316406 C 314.363281 47.195312 257.566406 9.886719 187.5 9.886719 C 117.433594 9.886719 60.636719 47.195312 60.636719 117.316406 C 60.636719 146.03125 70.179688 181.328125 86.242188 213 C 101.984375 261.363281 65.914062 325.195312 39.285156 316.308594 C 10.007812 306.542969 0.25 345.609375 29.523438 355.375 C 58.800781 365.140625 110.621094 349.253906 146.628906 316.308594 C 167.992188 296.777344 187.507812 296.777344 187.507812 296.777344 C 187.507812 296.777344 207.027344 296.777344 228.378906 316.308594 C 264.390625 349.253906 316.207031 365.140625 345.484375 355.375 C 374.761719 345.609375 364.992188 306.542969 335.714844 316.308594 Z M 335.714844 316.308594 " fill-opacity="1" fill-rule="nonzero"/></g><path fill="rgb(16.079712%, 18.429565%, 19.999695%)" d="M 167.984375 214.984375 C 167.984375 215.621094 167.949219 216.261719 167.886719 216.898438 C 167.824219 217.535156 167.730469 218.164062 167.605469 218.792969 C 167.484375 219.421875 167.328125 220.039062 167.140625 220.652344 C 166.957031 221.265625 166.742188 221.867188 166.496094 222.457031 C 166.253906 223.046875 165.980469 223.625 165.679688 224.191406 C 165.375 224.753906 165.046875 225.300781 164.691406 225.835938 C 164.339844 226.367188 163.957031 226.878906 163.550781 227.375 C 163.148438 227.867188 162.71875 228.34375 162.265625 228.792969 C 161.8125 229.246094 161.339844 229.675781 160.847656 230.082031 C 160.351562 230.488281 159.839844 230.867188 159.308594 231.222656 C 158.777344 231.578125 158.230469 231.90625 157.664062 232.210938 C 157.101562 232.511719 156.523438 232.785156 155.933594 233.027344 C 155.34375 233.273438 154.742188 233.488281 154.128906 233.675781 C 153.519531 233.859375 152.898438 234.015625 152.273438 234.140625 C 151.644531 234.265625 151.015625 234.359375 150.378906 234.421875 C 149.742188 234.484375 149.105469 234.515625 148.464844 234.515625 C 147.824219 234.515625 147.1875 234.484375 146.550781 234.421875 C 145.914062 234.359375 145.285156 234.265625 144.65625 234.140625 C 144.03125 234.015625 143.410156 233.859375 142.800781 233.675781 C 142.1875 233.488281 141.585938 233.273438 140.996094 233.027344 C 140.40625 232.785156 139.828125 232.511719 139.265625 232.210938 C 138.699219 231.90625 138.152344 231.578125 137.621094 231.222656 C 137.089844 230.867188 136.578125 230.488281 136.082031 230.082031 C 135.589844 229.675781 135.117188 229.246094 134.664062 228.792969 C 134.210938 228.34375 133.785156 227.867188 133.378906 227.375 C 132.972656 226.878906 132.59375 226.367188 132.238281 225.835938 C 131.882812 225.300781 131.554688 224.753906 131.253906 224.191406 C 130.949219 223.625 130.679688 223.046875 130.433594 222.457031 C 130.1875 221.867188 129.972656 221.265625 129.789062 220.652344 C 129.601562 220.039062 129.445312 219.421875 129.324219 218.792969 C 129.199219 218.164062 129.105469 217.535156 129.042969 216.898438 C 128.980469 216.261719 128.949219 215.621094 128.949219 214.984375 C 128.949219 214.34375 128.980469 213.703125 129.042969 213.066406 C 129.105469 212.429688 129.199219 211.800781 129.324219 211.171875 C 129.445312 210.542969 129.601562 209.925781 129.789062 209.3125 C 129.972656 208.699219 130.1875 208.097656 130.433594 207.507812 C 130.679688 206.917969 130.949219 206.339844 131.253906 205.773438 C 131.554688 205.210938 131.882812 204.664062 132.238281 204.128906 C 132.59375 203.597656 132.972656 203.085938 133.378906 202.589844 C 133.785156 202.097656 134.210938 201.621094 134.664062 201.171875 C 135.117188 200.71875 135.589844 200.289062 136.082031 199.882812 C 136.578125 199.476562 137.089844 199.097656 137.621094 198.742188 C 138.152344 198.386719 138.699219 198.058594 139.265625 197.757812 C 139.828125 197.453125 140.40625 197.179688 140.996094 196.9375 C 141.585938 196.691406 142.1875 196.476562 142.800781 196.289062 C 143.410156 196.105469 144.03125 195.949219 144.65625 195.824219 C 145.285156 195.699219 145.914062 195.605469 146.550781 195.542969 C 147.1875 195.480469 147.824219 195.449219 148.464844 195.449219 C 149.105469 195.449219 149.742188 195.480469 150.378906 195.542969 C 151.015625 195.605469 151.644531 195.699219 152.273438 195.824219 C 152.898438 195.949219 153.519531 196.105469 154.128906 196.289062 C 154.742188 196.476562 155.34375 196.691406 155.933594 196.9375 C 156.523438 197.179688 157.101562 197.453125 157.664062 197.757812 C 158.230469 198.058594 158.777344 198.386719 159.308594 198.742188 C 159.839844 199.097656 160.351562 199.476562 160.847656 199.882812 C 161.339844 200.289062 161.8125 200.71875 162.265625 201.171875 C 162.71875 201.621094 163.148438 202.097656 163.550781 202.589844 C 163.957031 203.085938 164.339844 203.597656 164.691406 204.128906 C 165.046875 204.664062 165.375 205.210938 165.679688 205.773438 C 165.980469 206.339844 166.253906 206.917969 166.496094 207.507812 C 166.742188 208.097656 166.957031 208.699219 167.140625 209.3125 C 167.328125 209.925781 167.484375 210.542969 167.609375 211.171875 C 167.730469 211.800781 167.824219 212.429688 167.886719 213.066406 C 167.949219 213.703125 167.984375 214.34375 167.984375 214.984375 Z M 167.984375 214.984375 " fill-opacity="1" fill-rule="nonzero"/><path fill="rgb(16.079712%, 18.429565%, 19.999695%)" d="M 246.050781 214.984375 C 246.050781 215.621094 246.019531 216.261719 245.957031 216.898438 C 245.894531 217.535156 245.800781 218.164062 245.675781 218.792969 C 245.554688 219.421875 245.398438 220.039062 245.210938 220.652344 C 245.027344 221.265625 244.8125 221.867188 244.566406 222.457031 C 244.320312 223.046875 244.050781 223.625 243.746094 224.191406 C 243.445312 224.753906 243.117188 225.300781 242.761719 225.835938 C 242.40625 226.367188 242.027344 226.878906 241.621094 227.375 C 241.214844 227.867188 240.789062 228.34375 240.335938 228.792969 C 239.882812 229.246094 239.410156 229.675781 238.917969 230.082031 C 238.421875 230.488281 237.910156 230.867188 237.378906 231.222656 C 236.847656 231.578125 236.300781 231.90625 235.734375 232.210938 C 235.171875 232.511719 234.59375 232.785156 234.003906 233.027344 C 233.414062 233.273438 232.8125 233.488281 232.199219 233.675781 C 231.589844 233.859375 230.96875 234.015625 230.34375 234.140625 C 229.714844 234.265625 229.085938 234.359375 228.449219 234.421875 C 227.8125 234.484375 227.175781 234.515625 226.535156 234.515625 C 225.894531 234.515625 225.257812 234.484375 224.621094 234.421875 C 223.984375 234.359375 223.355469 234.265625 222.726562 234.140625 C 222.101562 234.015625 221.480469 233.859375 220.871094 233.675781 C 220.257812 233.488281 219.65625 233.273438 219.066406 233.027344 C 218.476562 232.785156 217.898438 232.511719 217.335938 232.210938 C 216.769531 231.90625 216.222656 231.578125 215.691406 231.222656 C 215.160156 230.867188 214.648438 230.488281 214.152344 230.082031 C 213.660156 229.675781 213.1875 229.246094 212.734375 228.792969 C 212.28125 228.34375 211.851562 227.867188 211.449219 227.375 C 211.042969 226.878906 210.660156 226.367188 210.308594 225.835938 C 209.953125 225.300781 209.625 224.753906 209.320312 224.191406 C 209.019531 223.625 208.746094 223.046875 208.503906 222.457031 C 208.257812 221.867188 208.042969 221.265625 207.859375 220.652344 C 207.671875 220.039062 207.515625 219.421875 207.390625 218.792969 C 207.269531 218.164062 207.175781 217.535156 207.113281 216.898438 C 207.050781 216.261719 207.015625 215.621094 207.015625 214.984375 C 207.015625 214.34375 207.050781 213.703125 207.113281 213.066406 C 207.175781 212.429688 207.269531 211.800781 207.390625 211.171875 C 207.515625 210.542969 207.671875 209.925781 207.859375 209.3125 C 208.042969 208.699219 208.257812 208.097656 208.503906 207.507812 C 208.746094 206.917969 209.019531 206.339844 209.320312 205.773438 C 209.625 205.210938 209.953125 204.664062 210.308594 204.128906 C 210.660156 203.597656 211.042969 203.085938 211.449219 202.589844 C 211.851562 202.097656 212.28125 201.621094 212.734375 201.171875 C 213.1875 200.71875 213.660156 200.289062 214.152344 199.882812 C 214.648438 199.476562 215.160156 199.097656 215.691406 198.742188 C 216.222656 198.386719 216.769531 198.058594 217.335938 197.757812 C 217.898438 197.453125 218.476562 197.179688 219.066406 196.9375 C 219.65625 196.691406 220.257812 196.476562 220.871094 196.289062 C 221.480469 196.105469 222.101562 195.949219 222.726562 195.824219 C 223.355469 195.699219 223.984375 195.605469 224.621094 195.542969 C 225.257812 195.480469 225.894531 195.449219 226.535156 195.449219 C 227.175781 195.449219 227.8125 195.480469 228.449219 195.542969 C 229.085938 195.605469 229.714844 195.699219 230.34375 195.824219 C 230.96875 195.949219 231.589844 196.105469 232.199219 196.289062 C 232.8125 196.476562 233.414062 196.691406 234.003906 196.9375 C 234.59375 197.179688 235.171875 197.453125 235.734375 197.757812 C 236.300781 198.058594 236.847656 198.386719 237.378906 198.742188 C 237.910156 199.097656 238.421875 199.476562 238.917969 199.882812 C 239.410156 200.289062 239.882812 200.71875 240.335938 201.171875 C 240.789062 201.621094 241.214844 202.097656 241.621094 202.589844 C 242.027344 203.085938 242.40625 203.597656 242.761719 204.128906 C 243.117188 204.664062 243.445312 205.210938 243.746094 205.773438 C 244.050781 206.339844 244.320312 206.917969 244.566406 207.507812 C 244.8125 208.097656 245.027344 208.699219 245.210938 209.3125 C 245.398438 209.925781 245.554688 210.542969 245.675781 211.171875 C 245.800781 211.800781 245.894531 212.429688 245.957031 213.066406 C 246.019531 213.703125 246.050781 214.34375 246.050781 214.984375 Z M 246.050781 214.984375 " fill-opacity="1" fill-rule="nonzero"/></svg>